<svg width="249" height="45" viewBox="0 0 249 45" fill="none" xmlns="http://www.w3.org/2000/svg">
<path d="M19.5332 19.6273C19.5332 22.9594 20.1864 26.2587 21.4553 29.3371C22.7243 32.4155 24.5843 35.2125 26.9291 37.5686C29.2739 39.9245 32.0576 41.7936 35.1212 43.0687C38.1848 44.3438 41.4683 45 44.7844 45C48.1004 45 51.3839 44.3438 54.4476 43.0687C57.5112 41.7936 60.2949 39.9245 62.6397 37.5686C64.9845 35.2125 66.8444 32.4155 68.1134 29.3371C69.3824 26.2587 70.0356 22.9594 70.0356 19.6273H62.1445C59.5296 19.6273 57.4904 21.8292 56.5326 24.2739C56.5054 24.3436 56.4774 24.4129 56.4489 24.4823C55.8144 26.0214 54.8844 27.42 53.712 28.598C52.5396 29.7759 51.1477 30.7105 49.616 31.3481C48.0843 31.9856 46.4425 32.3137 44.7844 32.3137C43.1264 32.3137 41.4846 31.9856 39.9529 31.3481C38.421 30.7105 37.0292 29.7759 35.8567 28.598C34.6843 27.42 33.7544 26.0214 33.1199 24.4823C32.4854 22.943 32.1588 21.2933 32.1588 19.6273H19.5332Z" fill="white"/>
<path d="M0 25.3727C-1.84483e-07 22.0406 0.653141 18.7413 1.92213 15.6629C3.19113 12.5845 5.05111 9.78747 7.3959 7.43138C9.74068 5.07545 12.5244 3.20644 15.588 1.93132C18.6516 0.656204 21.9351 -2.91297e-07 25.2512 0C28.5672 2.91283e-07 31.8507 0.656206 34.9143 1.93133C37.978 3.20645 40.7616 5.07545 43.1064 7.43138C45.4513 9.78748 47.3112 12.5845 48.5802 15.6629C49.8492 18.7413 50.5024 22.0406 50.5024 25.3727H42.6113C39.9964 25.3727 37.9571 23.1708 36.9994 20.7261C36.9722 20.6564 36.9442 20.5871 36.9157 20.5177C36.2812 18.9786 35.3512 17.58 34.1787 16.402C33.0064 15.2241 31.6145 14.2895 30.0828 13.6519C28.551 13.0144 26.9093 12.6863 25.2512 12.6863C23.5932 12.6863 21.9514 13.0144 20.4196 13.6519C18.8877 14.2895 17.496 15.2241 16.3235 16.402C15.1511 17.58 14.2211 18.9786 13.5867 20.5177C12.9522 22.057 12.6256 23.7067 12.6256 25.3727H0Z" fill="white"/>
<path d="M113.038 36.5746H105.852L93.8337 18.2918V36.5746H86.6481V6.93361H93.8337L105.852 25.3009V6.93361H113.038V36.5746Z" fill="white"/>
<path d="M140.139 13.0138V36.5746H132.954V33.3656C132.225 34.4071 131.231 35.2516 129.97 35.899C128.738 36.5183 127.365 36.8279 125.852 36.8279C124.059 36.8279 122.476 36.4339 121.104 35.6457C119.731 34.8294 118.666 33.6612 117.91 32.1411C117.154 30.6211 116.775 28.8336 116.775 26.7787V13.0138H123.919V25.8076C123.919 27.3839 124.325 28.6084 125.138 29.481C125.95 30.3537 127.043 30.79 128.415 30.79C129.816 30.79 130.923 30.3537 131.735 29.481C132.547 28.6084 132.954 27.3839 132.954 25.8076V13.0138H140.139Z" fill="white"/>
<path d="M157.109 30.4522V36.5746H153.453C150.848 36.5746 148.817 35.9412 147.36 34.6745C145.903 33.3797 145.175 31.2826 145.175 28.3832V19.0096H142.317V13.0138H145.175V7.2714H152.36V13.0138H157.067V19.0096H152.36V28.4677C152.36 29.1714 152.528 29.6781 152.865 29.9877C153.201 30.2974 153.761 30.4522 154.545 30.4522H157.109Z" fill="white"/>
<path d="M167.036 16.9406C167.877 15.6458 168.927 14.6324 170.188 13.9005C171.449 13.1405 172.849 12.7605 174.39 12.7605V20.403H172.415C170.622 20.403 169.277 20.797 168.381 21.5852C167.485 22.3452 167.036 23.6964 167.036 25.6387V36.5746H159.851V13.0138H167.036V16.9406Z" fill="white"/>
<path d="M180.178 10.5648C178.917 10.5648 177.881 10.1989 177.068 9.46703C176.284 8.707 175.892 7.77809 175.892 6.68027C175.892 5.55431 176.284 4.62539 177.068 3.89351C177.881 3.13348 178.917 2.75347 180.178 2.75347C181.41 2.75347 182.419 3.13348 183.203 3.89351C184.016 4.62539 184.422 5.55431 184.422 6.68027C184.422 7.77809 184.016 8.707 183.203 9.46703C182.419 10.1989 181.41 10.5648 180.178 10.5648ZM183.75 13.0138V36.5746H176.564V13.0138H183.75Z" fill="white"/>
<path d="M197.235 36.9124C195.19 36.9124 193.369 36.5605 191.772 35.8568C190.176 35.1531 188.915 34.196 187.991 32.9856C187.066 31.747 186.548 30.3677 186.436 28.8477H193.537C193.621 29.664 194 30.3255 194.672 30.8322C195.344 31.3389 196.171 31.5922 197.151 31.5922C198.048 31.5922 198.734 31.4233 199.21 31.0855C199.714 30.7196 199.967 30.2551 199.967 29.6922C199.967 29.0166 199.616 28.524 198.916 28.2143C198.216 27.8765 197.081 27.5106 195.512 27.1165C193.832 26.7224 192.431 26.3143 191.31 25.892C190.19 25.4416 189.223 24.752 188.411 23.8231C187.598 22.866 187.192 21.5852 187.192 19.9807C187.192 18.6296 187.556 17.4051 188.285 16.3073C189.041 15.1813 190.134 14.2946 191.562 13.6472C193.019 12.9997 194.742 12.676 196.731 12.676C199.672 12.676 201.984 13.4079 203.665 14.8717C205.373 16.3354 206.354 18.2777 206.606 20.6985H199.967C199.855 19.8822 199.49 19.2348 198.874 18.7562C198.286 18.2777 197.501 18.0384 196.521 18.0384C195.68 18.0384 195.036 18.2073 194.588 18.5451C194.14 18.8548 193.916 19.2911 193.916 19.854C193.916 20.5296 194.266 21.0363 194.966 21.3741C195.694 21.7119 196.815 22.0497 198.328 22.3875C200.065 22.8378 201.479 23.2882 202.572 23.7386C203.665 24.1609 204.617 24.8646 205.429 25.8498C206.27 26.8069 206.704 28.1017 206.732 29.7344C206.732 31.1137 206.34 32.3522 205.555 33.4501C204.799 34.5197 203.693 35.3642 202.236 35.9835C200.807 36.6028 199.14 36.9124 197.235 36.9124Z" fill="white"/>
<path d="M222.936 30.4522V36.5746H219.28C216.675 36.5746 214.644 35.9412 213.187 34.6745C211.731 33.3797 211.002 31.2826 211.002 28.3832V19.0096H208.145V13.0138H211.002V7.2714H218.188V13.0138H222.894V19.0096H218.188V28.4677C218.188 29.1714 218.356 29.6781 218.692 29.9877C219.028 30.2974 219.589 30.4522 220.373 30.4522H222.936Z" fill="white"/>
<path d="M224.249 24.752C224.249 22.3312 224.698 20.2059 225.594 18.3762C226.519 16.5465 227.765 15.1391 229.334 14.1539C230.903 13.1686 232.654 12.676 234.587 12.676C236.239 12.676 237.682 13.0138 238.915 13.6894C240.175 14.365 241.142 15.2517 241.814 16.3495V13.0138H249V36.5746H241.814V33.2389C241.114 34.3367 240.133 35.2234 238.873 35.899C237.64 36.5746 236.197 36.9124 234.545 36.9124C232.64 36.9124 230.903 36.4198 229.334 35.4346C227.765 34.4212 226.519 32.9997 225.594 31.17C224.698 29.3121 224.249 27.1728 224.249 24.752ZM241.814 24.7942C241.814 22.9927 241.31 21.5711 240.302 20.5296C239.321 19.4881 238.116 18.9673 236.688 18.9673C235.259 18.9673 234.04 19.4881 233.032 20.5296C232.051 21.543 231.561 22.9504 231.561 24.752C231.561 26.5535 232.051 27.9891 233.032 29.0588C234.04 30.1003 235.259 30.6211 236.688 30.6211C238.116 30.6211 239.321 30.1003 240.302 29.0588C241.31 28.0173 241.814 26.5958 241.814 24.7942Z" fill="white"/>
</svg>
